<svg xmlns="http://www.w3.org/2000/svg" viewBox="0 0 54.32 53.96"><title>Asset 4</title><g id="Layer_2" data-name="Layer 2"><g id="Add_image_merged" data-name="Add image merged"><polygon points="49.03 3.96 26.03 3.96 26.03 9.25 49.03 9.25 49.03 48.66 39.32 48.66 39.32 48.66 9.32 48.66 9.32 25.96 4.03 25.96 4.03 48.66 4.03 53.96 9.32 53.96 19.03 53.96 39.32 53.96 49.03 53.96 54.32 53.96 54.32 48.66 54.32 9.25 54.32 3.96 49.03 3.96"/><polygon points="8.08 21.43 13.35 21.43 13.35 13.35 21.43 13.35 21.43 8.08 13.35 8.08 13.35 0 8.08 0 8.08 8.08 0 8.08 0 13.35 8.08 13.35 8.08 21.43"/><polygon points="18.89 45.44 29.79 45.44 45.63 45.44 32.26 23.65 24.34 36.56 21.48 31.9 13.18 45.44 18.89 45.44"/></g></g></svg>