<?xml version="1.0" encoding="UTF-8" standalone="no"?>
<svg width="325px" height="44px" viewBox="0 0 325 44" version="1.1" xmlns="http://www.w3.org/2000/svg" xmlns:xlink="http://www.w3.org/1999/xlink" xmlns:sketch="http://www.bohemiancoding.com/sketch/ns">
    <g id="Page-1" stroke="none" stroke-width="1" fill="none" fill-rule="evenodd" sketch:type="MSPage">
        <g id="Layer_1" sketch:type="MSLayerGroup" fill="#FFFFFF">
            <path d="M17.2,10.6 C18.7,10 20.4,9.9 22,10.1 C24.4,10.5 26.5,11.8 27.9,13.7 C29.2,15.4 29.8,17.5 29.7,19.6 C31.4,19.8 33,20.7 34,22.1 C34.8,23.1 35.2,24.4 35.3,25.7 L35.3,26.1 C35.2,27.5 34.7,28.9 33.8,29.9 C32.6,31.3 30.9,32.2 29.1,32.2 L23.1,32.2 C22.8,32.2 22.4,32.2 22.1,32 C21.8,31.8 21.8,31.3 22.1,31 C22.3,30.8 22.5,30.8 22.8,30.8 L29.1,30.8 C30.1,30.8 31.1,30.5 32,29.9 C32.9,29.3 33.6,28.3 33.8,27.2 C34.1,26 34,24.7 33.4,23.6 C32.6,22.2 31.1,21.2 29.4,21.1 C29.1,21.1 28.8,21.1 28.6,20.8 C28.4,20.6 28.4,20.3 28.4,20.1 C28.6,18.4 28.2,16.6 27.2,15.1 C26.3,13.7 24.9,12.5 23.4,11.9 C21.6,11.2 19.6,11.2 17.9,11.8 C15.8,12.6 14.1,14.3 13.3,16.3 C13.1,16.7 12.8,17 12.5,17 C12.2,17 12,16.8 11.8,16.7 C11,16 9.9,15.7 8.8,15.9 C7.5,16 6.4,17 6.1,18.3 C5.9,18.7 5.9,19.1 5.9,19.6 C5.9,19.9 5.6,20.2 5.3,20.2 C4,20.6 2.9,21.5 2.2,22.6 C1.7,23.5 1.4,24.6 1.4,25.6 C1.5,27 2,28.3 3,29.2 C4,30.2 5.4,30.8 6.9,30.8 L12.6,30.8 C12.8,30.8 13.1,30.9 13.3,31.1 C13.5,31.4 13.5,31.8 13.3,32 C13.1,32.2 12.8,32.2 12.6,32.2 L6.9,32.2 C5.4,32.2 3.9,31.7 2.7,30.7 C1,29.5 0.1,27.6 0,25.6 L0,25.2 C0,24.2 0.3,23.2 0.7,22.3 C1.5,20.8 2.9,19.6 4.5,19 C4.6,17.9 5,16.8 5.8,16 C6.6,15.1 7.8,14.5 9,14.4 C10.1,14.3 11.3,14.6 12.2,15.2 C13.2,13.1 15,11.4 17.2,10.6 L17.2,10.6 Z" id="Shape" sketch:type="MSShapeGroup"></path>
            <path d="M13.7,26 C15,24.7 16.3,23.4 17.6,22.1 C18.9,23.4 20.2,24.7 21.6,26.1 C21.7,26.3 21.9,26.5 21.9,26.7 C21.9,27.1 21.6,27.4 21.2,27.4 C21,27.4 20.8,27.3 20.6,27.1 L18.4,24.9 L18.4,35.1 C18.4,35.5 18.1,35.9 17.8,35.9 C17.4,35.9 17,35.5 17,35.1 L17,24.9 C16.3,25.7 15.5,26.4 14.8,27.1 C14.6,27.3 14.4,27.4 14.1,27.4 C13.7,27.4 13.4,27 13.5,26.7 C13.5,26.3 13.6,26.1 13.7,26 L13.7,26 Z" id="Shape" sketch:type="MSShapeGroup"></path>
            <text id="Upload-af-forsider" sketch:type="MSTextLayer" font-family="Helvetica" font-size="36" font-weight="normal">
                <tspan x="39.25" y="35.7038">Upload af forsider</tspan>
            </text>
        </g>
    </g>
</svg>